:SAMPLES-PER-SECOND 30
:FULLY-SPECIFIED
:DEGREES
1
root  89.5547 39.2918 -3.74773 -149.644 -86.641 147.496
RightUpLeg  -1.60963 -7.95128 -4.76301
RightLeg  6.27344 8.42979 0.0228486
RightFoot  -3.16021 -0.0494383 0.31764
RightToes  -3.0268e-009 0 -3.6325e-017
Spine  -0.434863 2.03163 1.58185
Spine1  6.00541 2.39372 -1.03976
HEad  -13.128 -5.2851 -4.92022
LeftShoulder1  -0.552315 4.90889 -34.1629
LeftArm  6.15076 6.54278 -41.7812
LeftForeArm  39.7277 -15.5778 -6.87486
LeftHand  -5.64695 -41.1872 14.1235
RightShoulder  -1.4055 -7.07024 32.8907
RightArm  20.5867 1.70769 44.8592
RightForeArm  16.447 11.0813 7.99271
RightHand  -0.0368524 2.34351 -0.743518
LeftUpLeg  1.37444 5.495 0.0719442
LeftLeg  3.31627 1.07648 -0.0681431
LeftFoot  -3.03401 -0.182139 2.85007
LeftToes  2.52475e-009 -1.26109e-010 3.16044e-011
2
root  89.5595 39.2948 -3.75486 -148.763 -86.6665 146.547
RightUpLeg  -1.5099 -7.95236 -4.79205
RightLeg  6.2255 8.37809 0.006915
RightFoot  -3.14816 -0.0391662 0.158173
RightToes  -3.0268e-009 0 -3.6325e-017
Spine  -0.273506 1.99973 1.53822
Spine1  5.91339 2.36236 -1.06232
HEad  -13.2239 -5.28363 -4.86756
LeftShoulder1  -0.552315 4.88882 -34.1453
LeftArm  6.49035 6.57875 -41.7647
LeftForeArm  39.497 -15.7135 -6.83571
LeftHand  -5.61434 -41.0893 14.0765
RightShoulder  -1.39382 -7.04787 32.81
RightArm  20.5504 1.66815 44.915
RightForeArm  16.5131 11.1424 7.9526
RightHand  -0.0168181 2.0803 -0.441588
LeftUpLeg  1.36328 5.49449 0.0405472
LeftLeg  3.47346 1.09808 -0.0506801
LeftFoot  -3.01161 -0.176332 2.75971
LeftToes  2.52475e-009 -1.26109e-010 3.16044e-011
3
root  89.5579 39.2852 -3.75807 -149.653 -86.6924 147.382
RightUpLeg  -1.52709 -7.90368 -4.7159
RightLeg  6.3821 8.30975 -0.0137768
RightFoot  -3.22299 -0.0453568 0.254278
RightToes  -3.0268e-009 0 -3.6325e-017
Spine  -0.0283804 2.05184 1.50673
Spine1  5.63589 2.36715 -0.819447
HEad  -13.084 -5.43364 -5.05243
LeftShoulder1  -0.553633 4.8689 -34.3268
LeftArm  7.15986 6.6202 -41.7015
LeftForeArm  38.9996 -15.9324 -6.79121
LeftHand  -5.7174 -40.8128 14.4096
RightShoulder  -1.38737 -7.03815 32.7366
RightArm  20.6707 1.49241 44.7832
RightForeArm  16.531 11.2892 7.90506
RightHand  -0.0212515 1.64823 -0.498981
LeftUpLeg  1.5026 5.54753 0.130969
LeftLeg  3.30001 1.0516 -0.0868408
LeftFoot  -3.03518 -0.191067 2.98902
LeftToes  2.52475e-009 -1.26109e-010 3.16044e-011
4
root  89.5542 39.2905 -3.75906 -149.374 -86.6761 147.11
RightUpLeg  -1.52501 -7.9693 -4.76835
RightLeg  6.37576 8.39607 0.0440919
RightFoot  -3.14125 -0.0404592 0.178247
RightToes  -3.0268e-009 0 -3.6325e-017
Spine  0.0338246 2.06288 1.50155
Spine1  5.54857 2.37894 -0.828233
HEad  -12.9101 -5.72694 -5.27145
LeftShoulder1  -0.55473 4.87512 -34.2866
LeftArm  7.42976 6.66229 -41.7592
LeftForeArm  38.878 -16.0316 -6.76318
LeftHand  -5.75161 -40.8096 14.4921
RightShoulder  -1.40429 -7.07635 32.7915
RightArm  20.6978 1.4524 44.7027
RightForeArm  16.6766 11.3525 7.87203
RightHand  -0.0138055 1.63699 -0.378068
LeftUpLeg  1.48698 5.53036 0.103182
LeftLeg  3.36453 1.04907 -0.0756809
LeftFoot  -3.09551 -0.175229 2.74255
LeftToes  2.52475e-009 -1.26109e-010 3.16044e-011
5
root  89.5489 39.2954 -3.76781 -150.34 -86.5862 148.061
RightUpLeg  -1.45151 -7.89866 -4.72753
RightLeg  6.23561 8.44089 -0.0103377
RightFoot  -3.14279 -0.0444169 0.239688
RightToes  -3.0268e-009 0 -3.6325e-017
Spine  0.101971 2.1018 1.54164
Spine1  5.4295 2.43515 -0.93669
HEad  -12.8718 -5.75085 -5.21993
LeftShoulder1  -0.543811 4.84972 -34.2404
LeftArm  7.51048 6.76181 -41.7433
LeftForeArm  38.9575 -16.0658 -6.75004
LeftHand  -5.48638 -40.5309 13.9414
RightShoulder  -1.40357 -7.06961 32.8443
RightArm  20.9046 1.414 44.6223
RightForeArm  16.3278 11.4067 7.90464
RightHand  -0.0316342 1.69347 -0.667705
LeftUpLeg  1.5089 5.60067 0.160866
LeftLeg  3.43352 1.05511 -0.107679
LeftFoot  -3.16733 -0.16178 2.53478
LeftToes  2.52475e-009 -1.26109e-010 3.16044e-011
6
root  89.5471 39.2839 -3.76764 -150.207 -86.6248 147.92
RightUpLeg  -1.4147 -7.90996 -4.72075
RightLeg  6.20205 8.38036 -0.0141654
RightFoot  -3.27963 -0.0566223 0.429157
RightToes  -3.0268e-009 0 -3.6325e-017
Spine  0.122744 2.05233 1.58601
Spine1  5.40936 2.39434 -0.963593
HEad  -12.7688 -5.98863 -5.2153
LeftShoulder1  -0.534622 4.82882 -34.1854
LeftArm  7.56868 6.78853 -41.7359
LeftForeArm  39.1135 -16.0313 -6.77776
LeftHand  -5.62582 -40.954 14.1455
RightShoulder  -1.39362 -7.04732 32.8105
RightArm  20.8599 1.42459 44.6848
RightForeArm  16.2135 11.3634 7.92574
RightHand  -0.0485291 2.1294 -0.936097
LeftUpLeg  1.50465 5.56316 0.140881
LeftLeg  3.40179 1.07058 -0.0821418
LeftFoot  -3.12469 -0.17877 2.80403
LeftToes  2.52475e-009 -1.26109e-010 3.16044e-011
